<svg xmlns="http://www.w3.org/2000/svg" width="157.685" height="154.377" viewBox="0 0 157.685 154.377">
  <g id="Group_2200" data-name="Group 2200" transform="translate(-980.13 -1235)">
    <path id="Path_12379" data-name="Path 12379" d="M195.628,179.715v17.671h-37.7v12.783h-4.838a7.311,7.311,0,0,0,.118-4.845l-5.772-17.657c-.658-2.3-1.059-2.053-11.329-14.536l6.254-21.245,12.742,4.9,0,0a2.726,2.726,0,0,0,.938.176c.558,0,1.857,0,18.908-7.8,1.912-.625,5.275-1.8,5.873-5.3a6.533,6.533,0,0,0-6.474-7.686,2.47,2.47,0,0,0-.75.118l-17.814,5.774c-4.275-2.254-12.8-5.653-15.614-8.125a11.994,11.994,0,0,0-3.622-2.195,12.255,12.255,0,0,0-4.489-.852,12.542,12.542,0,0,0-11.614,8.063c-10.565,36.44-9.974,32.582-10.167,36.245a29.942,29.942,0,0,1-1.332,7.667L99.776,214.44a6.9,6.9,0,0,0,.14,4.154H82.535v31.877H238.191V179.713Zm-91.174,36.059,9.173-31.554c2.216-7.773.965-9.041,2.126-12.109l9.3-31.569a7.593,7.593,0,0,1,7.019-4.779,7.418,7.418,0,0,1,2.725.521,7.254,7.254,0,0,1,2.176,1.316c3.853,3.391,13.348,6.894,17.357,9.215a2.443,2.443,0,0,0,1.969.209l18.372-5.957a1.664,1.664,0,0,1,1.014.573,1.7,1.7,0,0,1,.359,1.4c-.1.606-1.369,1.1-2.72,1.537a2.314,2.314,0,0,0-.259.1c-6.886,3.152-14.647,6.551-16.875,7.309L141.651,146.4a2.446,2.446,0,0,0-1.951.09,2.414,2.414,0,0,0-1.256,1.494l-7.363,25.01a2.425,2.425,0,0,0,.454,2.23c10.165,12.383,10.924,12.733,11.255,13.866l5.8,17.744a2.545,2.545,0,0,1-1.65,3.214,2.569,2.569,0,0,1-3.185-1.629l-5.591-17.046a2.41,2.41,0,0,0-.7-1.059c-4.692-4.169-6.364-8.1-12.039-8.118a9.2,9.2,0,0,0-8.819,6.646l-8.151,28.033a2.085,2.085,0,0,1-2.014,1.517,1.662,1.662,0,0,1-.571-.1,2,2,0,0,1-1.225-.966,2.054,2.054,0,0,1-.194-1.555Zm8.674,2.461,8.157-28.05a4.328,4.328,0,0,1,4.159-3.126c3.051.011,3.819,2.324,8.3,6.444l5.389,16.432c.027.082.069.155.1.235h-19V218.6H112.99c.043-.123.1-.235.138-.361Zm7.106,27.375H87.4V223.46h32.835Zm37.7,0H125.1V215.033h32.835Zm37.7,0H162.793V202.25h32.835Zm37.7,0H200.49V184.579h32.835Z" transform="translate(898.595 1137.905)" stroke="#fff" stroke-width="2"/>
    <path id="Path_12380" data-name="Path 12380" d="M486.932,55.654h.076c.918,0,2.072-1.261,2.172-1.5.008-.016.022-.03.03-.047l14.313-32.526a2.43,2.43,0,0,0-2.226-3.411H488.135a2.433,2.433,0,0,0-2.2,1.4l-5.55,11.809-5.535-11.806a2.432,2.432,0,0,0-2.2-1.4H459.484a2.43,2.43,0,0,0-2.226,3.411L471.572,54.1c.007.016.021.028.027.044s.024.043.034.066a2.315,2.315,0,0,0,2.026,1.4c.065,0,.119.038.185.038h4.114V60.3L474.526,70.87h-11.5a2.431,2.431,0,0,0-1.43,4.4l9.3,6.76-3.553,10.935a2.431,2.431,0,0,0,3.743,2.717l9.3-6.758,9.3,6.758a2.432,2.432,0,0,0,3.743-2.717l-3.551-10.935,9.3-6.76a2.431,2.431,0,0,0-1.43-4.4h-11.5L482.821,60.3v-4.65Zm3.337,20.081-4.676,3.4a2.427,2.427,0,0,0-.883,2.717l1.786,5.5-4.676-3.4a2.427,2.427,0,0,0-2.86,0l-4.674,3.4,1.786-5.5a2.429,2.429,0,0,0-.883-2.717l-4.676-3.4h5.781a2.432,2.432,0,0,0,2.313-1.681l1.783-5.493,1.786,5.493a2.431,2.431,0,0,0,2.313,1.681Zm-.592-52.706h7.893L485.358,50.787l-7.968-.015,5.2-12.675Zm-18.578,0,6.622,14.125-4,9.755L463.21,23.031Z" transform="translate(633.057 1217.835)" stroke="#fff" stroke-width="2"/>
    <path id="Path_12381" data-name="Path 12381" d="M225.88,53.81A12.818,12.818,0,1,0,238.7,40.992,12.832,12.832,0,0,0,225.88,53.81Zm20.773,0a7.954,7.954,0,1,1-7.954-7.954A7.963,7.963,0,0,1,246.652,53.81Z" transform="translate(796.961 1201.651)" stroke="#fff" stroke-width="2"/>
  </g>
</svg>
