<svg xmlns="http://www.w3.org/2000/svg" width="17.213" height="28.091" viewBox="0 0 17.213 28.091">
  <path id="Intersection_1" data-name="Intersection 1" d="M18.974,16.917a1.418,1.418,0,0,1,.01-1.884L23.823,9.9H.117c-.027,0-.057,0-.087,0Q0,9.341,0,8.781C0,8.288.02,7.8.052,7.314l.065,0H23.823L18.984,2.177a1.345,1.345,0,0,1-.01-1.884A1.472,1.472,0,0,1,20.851.4l6.887,7.317a1.459,1.459,0,0,1,.353.886,1.261,1.261,0,0,1-.353.891L20.851,16.81a1.571,1.571,0,0,1-1.064.4A1.158,1.158,0,0,1,18.974,16.917Z" transform="translate(17.213) rotate(90)" fill="#64d281"/>
</svg>
