<svg xmlns="http://www.w3.org/2000/svg" width="27.397" height="16.788" viewBox="0 0 27.397 16.788">
  <path id="Intersection_1" data-name="Intersection 1" d="M18.506,16.5a1.383,1.383,0,0,1,.01-1.837l4.72-5.009H.114c-.027,0-.056,0-.085,0Q0,9.11,0,8.565c0-.481.019-.958.051-1.431l.063,0H23.235l-4.72-5.009a1.312,1.312,0,0,1-.01-1.837,1.436,1.436,0,0,1,1.83.1l6.717,7.136a1.423,1.423,0,0,1,.344.864,1.23,1.23,0,0,1-.344.869l-6.717,7.136a1.532,1.532,0,0,1-1.038.393A1.129,1.129,0,0,1,18.506,16.5Z" fill="#fff"/>
</svg>
