<svg xmlns="http://www.w3.org/2000/svg" width="10.362" height="16.911" viewBox="0 0 10.362 16.911">
  <path id="Intersection_1" data-name="Intersection 1" d="M11.423,10.184a.854.854,0,0,1,.006-1.134l2.913-3.092H.07l-.052,0Q0,5.623,0,5.286c0-.3.012-.591.031-.883h14.31L11.429,1.31A.81.81,0,0,1,11.423.176a.886.886,0,0,1,1.13.064l4.146,4.4a.878.878,0,0,1,.212.533.759.759,0,0,1-.212.537l-4.146,4.4a.945.945,0,0,1-.64.243A.7.7,0,0,1,11.423,10.184Z" transform="translate(10.362) rotate(90)" fill="#fff"/>
</svg>
