<svg xmlns="http://www.w3.org/2000/svg" width="32.75" height="20.068" viewBox="0 0 32.75 20.068">
  <path id="Intersection_3" data-name="Intersection 3" d="M22.121,19.722a1.653,1.653,0,0,1,.012-2.2l5.642-5.987H.136c-.032,0-.067,0-.1,0Q0,10.89,0,10.238c0-.575.023-1.145.061-1.711l.075,0H27.775L22.133,2.538a1.568,1.568,0,0,1-.012-2.2,1.716,1.716,0,0,1,2.188.124L32.338,9a1.7,1.7,0,0,1,.411,1.033,1.471,1.471,0,0,1-.411,1.039l-8.03,8.53a1.831,1.831,0,0,1-1.24.47A1.349,1.349,0,0,1,22.121,19.722Z" fill="#060e2c"/>
</svg>
