<svg xmlns="http://www.w3.org/2000/svg" width="154.38" height="154.378" viewBox="0 0 154.38 154.378">
  <g id="Group_2199" data-name="Group 2199" transform="translate(-605.81 -1229.781)">
    <path id="Path_12326" data-name="Path 12326" d="M72.381,259.164a2.381,2.381,0,0,0,2.381-2.381v-3.845c0-12.941,7.119-23.686,17.326-27.747a22.747,22.747,0,0,1-4.352-3.256C77.161,227.362,70,239.063,70,252.94v3.845a2.381,2.381,0,0,0,2.381,2.381Z" transform="translate(536.81 1069.234)" stroke="#fff" stroke-width="2"/>
    <path id="Path_12327" data-name="Path 12327" d="M237.05,222.616c11,3.571,18.831,14.718,18.831,28.28v3.845a2.381,2.381,0,1,0,4.762,0V250.9c0-14.569-7.9-26.737-19.358-31.766a22.673,22.673,0,0,1-4.235,3.485Z" transform="translate(415.215 1071.277)" stroke="#fff" stroke-width="2"/>
    <path id="Path_12328" data-name="Path 12328" d="M144.728,96.25a17.857,17.857,0,1,0,17.859,17.859A17.859,17.859,0,0,0,144.728,96.25Zm0,30.952a13.1,13.1,0,1,1,13.1-13.093A13.108,13.108,0,0,1,144.728,127.2Z" transform="translate(495.413 1160.721)" stroke="#fff" stroke-width="2"/>
    <path id="Path_12329" data-name="Path 12329" d="M165.649,376.217a13.1,13.1,0,1,0-18.254,12.033c-8.6.8-15.294,5.421-18.65,12.4-3.357-6.977-10.051-11.6-18.652-12.4a13.095,13.095,0,1,0-10.318,0c-12.511,1.165-21.03,10.39-21.03,23.242v2.819a2.381,2.381,0,0,0,4.762,0v-2.819c0-11.305,7.45-18.61,18.982-18.61h4.883c11.537,0,18.992,7.3,18.992,18.61v2.819a2.381,2.381,0,1,0,4.762,0v-2.819c0-11.305,7.45-18.61,18.982-18.61h4.884c11.537,0,18.991,7.3,18.991,18.61v2.819a2.381,2.381,0,1,0,4.762,0v-2.819c0-11.305,7.451-18.61,18.983-18.61h4.883c11.537,0,18.991,7.3,18.991,18.61v2.818a2.381,2.381,0,0,0,4.762,0v-2.818c0-12.847-8.519-22.072-21.033-23.239a13.1,13.1,0,1,0-10.317,0c-8.6.8-15.293,5.422-18.65,12.4-3.358-6.977-10.052-11.6-18.652-12.4a13.1,13.1,0,0,0,7.938-12.034Zm-60.715,8.332a8.333,8.333,0,1,1,8.334-8.332A8.341,8.341,0,0,1,104.934,384.549Zm86.905-8.332a8.333,8.333,0,1,1,8.333,8.332A8.343,8.343,0,0,1,191.839,376.217Zm-39.287,8.332a8.333,8.333,0,1,1,8.334-8.332A8.341,8.341,0,0,1,152.552,384.549Z" transform="translate(530.444 966.467)" stroke="#fff" stroke-width="2"/>
    <path id="Path_12330" data-name="Path 12330" d="M363.12,225.511v7.143a2.381,2.381,0,0,0,4.762,0v-7.143a2.381,2.381,0,1,0-4.762,0Z" transform="translate(323.45 1068.366)" stroke="#fff" stroke-width="2"/>
    <path id="Path_12331" data-name="Path 12331" d="M406.88,199.251v14.286a2.381,2.381,0,1,0,4.762,0V199.251a2.381,2.381,0,1,0-4.762,0Z" transform="translate(291.597 1087.48)" stroke="#fff" stroke-width="2"/>
    <path id="Path_12332" data-name="Path 12332" d="M450.62,164.251V188.06a2.381,2.381,0,1,0,4.762,0V164.251a2.381,2.381,0,1,0-4.762,0Z" transform="translate(259.759 1112.957)" stroke="#fff" stroke-width="2"/>
    <path id="Path_12333" data-name="Path 12333" d="M494.38,129.251v33.333a2.381,2.381,0,0,0,4.762,0V129.251a2.381,2.381,0,0,0-4.762,0Z" transform="translate(227.906 1138.434)" stroke="#fff" stroke-width="2"/>
    <path id="Path_12334" data-name="Path 12334" d="M542.882,137.107V94.251a2.381,2.381,0,0,0-4.762,0v42.857a2.381,2.381,0,0,0,4.762,0Z" transform="translate(196.068 1163.909)" stroke="#fff" stroke-width="2"/>
    <path id="Path_12335" data-name="Path 12335" d="M354.945,98.9a2.383,2.383,0,0,0,3.358.26l37.317-31.956-.035.176a2.38,2.38,0,1,0,4.67.918l1.689-8.584a2.379,2.379,0,0,0-3.114-2.708L390.8,59.787a2.375,2.375,0,0,0,.764,4.621L355.2,95.545a2.383,2.383,0,0,0-.26,3.358Z" transform="translate(329.818 1189.38)" stroke="#fff" stroke-width="2"/>
    <path id="Path_12336" data-name="Path 12336" d="M284.434,89.826q-.057.67-.058,1.351V91.2a2.381,2.381,0,0,0,4.762-.026q0-.477.04-.944a2.381,2.381,0,0,0-4.744-.407Z" transform="translate(380.768 1166.984)" stroke="#fff" stroke-width="2"/>
    <path id="Path_12337" data-name="Path 12337" d="M292.368,116.962a2.381,2.381,0,0,0-.816,3.266q.357.6.767,1.156a2.381,2.381,0,0,0,3.847-2.806q-.284-.389-.531-.8a2.382,2.382,0,0,0-3.266-.815Z" transform="translate(375.791 1145.892)" stroke="#fff" stroke-width="2"/>
    <path id="Path_12338" data-name="Path 12338" d="M294.807,61.122c-.3.348-.59.709-.86,1.083A2.381,2.381,0,0,0,297.8,65q.284-.391.6-.756a2.381,2.381,0,1,0-3.6-3.123Z" transform="translate(374.131 1186.887)" stroke="#fff" stroke-width="2"/>
    <path id="Path_12339" data-name="Path 12339" d="M313.827,137.6a2.381,2.381,0,0,0,1.254,3.125q.638.274,1.3.488a2.411,2.411,0,0,0,.732.116,2.382,2.382,0,0,0,.731-4.648q-.458-.148-.9-.335a2.383,2.383,0,0,0-3.125,1.254Z" transform="translate(359.47 1131.674)" stroke="#fff" stroke-width="2"/>
    <path id="Path_12340" data-name="Path 12340" d="M319.882,50.056a2.361,2.361,0,0,0,.74-.119c.3-.1.612-.186.927-.258a2.381,2.381,0,1,0-1.068-4.641q-.681.156-1.336.372a2.382,2.382,0,0,0,.738,4.646Z" transform="translate(356.656 1198.041)" stroke="#fff" stroke-width="2"/>
    <path id="Path_12341" data-name="Path 12341" d="M351.634,46.639c-.422-.176-.853-.338-1.292-.48a2.381,2.381,0,0,0-1.464,4.532q.465.15.91.338a2.381,2.381,0,0,0,1.846-4.39Z" transform="translate(335.017 1197.266)" stroke="#fff" stroke-width="2"/>
    <path id="Path_12342" data-name="Path 12342" d="M343.31,140.865a2.38,2.38,0,0,0,2.85,1.792q.682-.155,1.341-.371a2.381,2.381,0,1,0-1.476-4.527c-.3.1-.61.184-.922.255a2.383,2.383,0,0,0-1.793,2.851Z" transform="translate(337.912 1130.593)" stroke="#fff" stroke-width="2"/>
    <path id="Path_12343" data-name="Path 12343" d="M369.561,125.24a2.379,2.379,0,0,0,3.359-.218q.461-.525.871-1.092a2.381,2.381,0,1,0-3.855-2.794c-.187.257-.385.507-.594.745a2.381,2.381,0,0,0,.22,3.359Z" transform="translate(319.352 1143.322)" stroke="#fff" stroke-width="2"/>
    <path id="Path_12344" data-name="Path 12344" d="M375.637,64.421a2.381,2.381,0,1,0-3.838,2.818c.188.256.366.52.529.794a2.381,2.381,0,1,0,4.084-2.451q-.363-.6-.775-1.161Z" transform="translate(317.468 1184.598)" stroke="#fff" stroke-width="2"/>
    <path id="Path_12345" data-name="Path 12345" d="M382.871,91.777a2.4,2.4,0,0,0-2.381,2.408q0,.485-.042.959a2.38,2.38,0,0,0,2.158,2.585c.072.005.146.01.216.01a2.382,2.382,0,0,0,2.369-2.167c.04-.455.062-.918.062-1.386v-.052a2.359,2.359,0,0,0-2.381-2.355Z" transform="translate(310.844 1163.977)" stroke="#fff" stroke-width="2"/>
    <path id="Path_12346" data-name="Path 12346" d="M173.391,243.05a22.591,22.591,0,0,1-3.948-.368l-3.09,16.82a4.124,4.124,0,0,0,2.151,4.467l3.4,2.2.193.112a5.723,5.723,0,0,0,5.016,0l3.594-2.313a3.981,3.981,0,0,0,2.055-4.566l-3.783-17.083a22.543,22.543,0,0,1-4.726.683l3.771,17.03-3.145,2.033a1.472,1.472,0,0,1-.545,0l-3.23-2.091L174.224,243c-.277.012-.551.045-.833.045Z" transform="translate(466.75 1054.396)" stroke="#fff" stroke-width="2"/>
    <path id="Path_12347" data-name="Path 12347" d="M306.8,0H197.262a4.982,4.982,0,0,0-4.755,5.182V21.428a22.607,22.607,0,0,1,4.762.514V5.181a.7.7,0,0,1,.119-.42H306.674a.713.713,0,0,1,.118.42V82.911a.709.709,0,0,1-.119.42H232.241a43.356,43.356,0,0,1,.609,4.762H306.8a4.982,4.982,0,0,0,4.755-5.182V5.181A4.982,4.982,0,0,0,306.8,0Z" transform="translate(447.638 1230.781)" stroke="#fff" stroke-width="2"/>
  </g>
</svg>
